<svg width="73" height="48" viewBox="0 0 73 48" fill="none" xmlns="http://www.w3.org/2000/svg">
<g clip-path="url(#clip0_196_52)">
<path d="M37.1057 26.8655C39.8227 22.1594 42.5398 17.4532 45.2569 12.7471C45.583 12.4977 45.8791 12.1877 46.2395 12.0101C47.4437 11.4227 48.6184 11.596 49.7533 12.2513C56.2286 15.9919 62.7041 19.7284 69.1775 23.4723C69.5011 23.6591 69.813 23.8848 70.0837 24.1407C71.1856 25.1799 71.4835 26.7516 70.7946 27.9485C68.2154 32.4309 65.6255 36.9092 63.0381 41.3869C62.7501 41.8858 62.3383 42.2612 61.8104 42.4959C60.6309 43.0218 59.4931 42.8784 58.3963 42.2473C56.493 41.1506 54.5913 40.0548 52.6926 38.95C52.4927 38.8345 52.3158 38.8104 52.0942 38.8601C50.3785 39.252 48.6595 39.631 46.9427 40.0136C46.8414 40.0352 46.7393 40.0543 46.6321 40.0747C46.5951 39.9623 46.5652 39.8714 46.5362 39.7789C46.0101 38.0992 45.4788 36.421 44.9604 34.7393C44.8935 34.5208 44.7842 34.3797 44.5842 34.2643C42.5961 33.1229 40.6052 31.9865 38.633 30.8175C37.8029 30.3252 37.2736 29.5711 37.0314 28.6275C36.8761 28.0329 36.9456 27.4469 37.1057 26.8655ZM55.7495 24.328C55.726 24.2711 55.716 24.2545 55.7112 24.2366C55.7051 24.1984 55.7015 24.1595 55.697 24.1222C55.4921 22.5696 54.683 21.4589 53.2178 20.8989C51.7525 20.339 50.3822 20.6095 49.2317 21.6635C48.0908 22.7122 47.698 24.0497 48.1343 25.5432C48.8404 27.955 49.608 30.3504 50.3526 32.752C50.3744 32.8231 50.4074 32.8898 50.4367 32.9631C51.6071 32.757 52.758 32.5547 53.9107 32.3493C55.4333 32.0778 56.9652 31.8464 58.4754 31.5136C60.2959 31.113 61.5382 29.3255 61.3774 27.4711C61.2128 25.5669 59.7203 24.0704 57.8428 23.9202C57.1129 23.8628 56.4214 24.0053 55.7495 24.328Z" fill="#FF5E5E"/>
<path d="M55.7495 24.328C56.4215 24.0053 57.1113 23.8619 57.8419 23.9219C59.7194 24.072 61.212 25.5685 61.3765 27.4727C61.5363 29.3287 60.295 31.1146 58.4745 31.5152C56.9643 31.848 55.4333 32.0778 53.9098 32.3509C52.7587 32.5573 51.6062 32.7586 50.4358 32.9647C50.4065 32.8915 50.3719 32.8238 50.3517 32.7536C49.6088 30.353 48.8395 27.9567 48.1334 25.5448C47.6971 24.0513 48.0899 22.7138 49.2308 21.6651C50.3807 20.6086 51.7516 20.3406 53.2178 20.8989C54.684 21.4573 55.4922 22.5696 55.6971 24.1222C55.7032 24.1604 55.7051 24.1984 55.7113 24.2366C55.7161 24.2545 55.726 24.2711 55.7495 24.328Z" fill="white"/>
</g>
<path fill-rule="evenodd" clip-rule="evenodd" d="M0.598389 9.20758L4.2417 24.8821C4.51819 25.4092 4.86292 25.8787 5.37524 26.2027C6.18518 26.7199 7.07422 26.9069 8.00342 26.7023C9.92395 26.2791 11.838 25.8287 13.7521 25.3781L14.609 25.1765C14.8307 25.1249 15.0045 25.153 15.1997 25.2654C16.7058 26.1286 18.2188 26.9807 19.7289 27.8372C19.8121 27.8845 19.8949 27.9299 19.9972 27.9859L20.0266 27.9456C20.0793 27.8732 20.1302 27.8033 20.1796 27.7325L20.8502 26.7507C21.6057 25.6451 22.3615 24.5389 23.1106 23.4285C23.2367 23.2434 23.3802 23.1415 23.6019 23.0899C25.7129 22.6069 27.8198 22.1153 29.9287 21.6232C31.1433 21.3389 32.0588 20.6755 32.5536 19.5013C32.7755 18.9763 32.8191 18.4279 32.6903 17.8741C31.5364 12.9014 30.3839 7.92646 29.2209 2.956C28.9105 1.62848 27.6372 0.695988 26.144 0.689396C25.7769 0.687321 25.4003 0.734807 25.0415 0.818303C17.8599 2.48188 10.6818 4.15216 3.50098 5.8194C2.24268 6.11188 1.28027 6.77863 0.809326 8.01386C0.713501 8.26789 0.681274 8.54633 0.649048 8.82502C0.634277 8.95331 0.619385 9.08161 0.598389 9.20758ZM16.9858 8.95063C17.0496 8.89277 17.1163 8.83735 17.1849 8.7829C18.6375 7.62568 20.72 7.6988 22.1211 8.961C22.4618 9.26801 22.7374 9.63044 22.942 10.0255C22.7373 9.62958 22.4619 9.2663 22.1207 8.95917C20.7195 7.69696 18.6371 7.62384 17.1844 8.78107C17.1158 8.83588 17.0497 8.8924 16.9858 8.95063Z" fill="#43609D"/>
<rect x="2" y="7.03442" width="25.3372" height="19.5563" transform="rotate(-13.7781 2 7.03442)" fill="#43609D"/>
<path d="M22.6622 14.8614C23.1261 14.9685 23.2954 15.125 23.3262 15.4696C23.351 15.732 23.2624 15.9636 23.0876 16.1602C22.9193 16.3515 22.7028 16.4664 22.4612 16.5226C20.4732 16.9866 18.4848 17.4488 16.4951 17.9055C16.3905 17.9298 16.2757 17.9185 16.1681 17.9131C16.1084 17.9098 16.0508 17.8909 15.9936 17.8738C15.6617 17.7702 15.341 17.5919 14.9624 17.7617C14.9444 17.6841 14.9322 17.6318 14.92 17.5794C14.5862 16.1433 14.2538 14.705 13.9146 13.2702C13.8882 13.1565 13.9055 13.084 13.9925 13.0086C14.5615 12.5056 14.9582 11.8904 15.1888 11.1656C15.4586 10.3156 15.7388 9.46888 16.0127 8.61985C16.1001 8.3504 16.0991 8.08441 16.0197 7.80812C15.8787 7.31604 15.7666 6.81726 15.6342 6.32128C15.6054 6.21387 15.6278 6.13832 15.7021 6.06588C15.9773 5.79465 16.3109 5.74184 16.6749 5.80366C16.7205 5.81206 16.7678 5.86003 16.7999 5.9001C17.2277 6.4244 17.6304 6.97164 17.8678 7.60865C17.9654 7.87312 17.9838 8.1731 18.0069 8.46057C18.0614 9.16101 18.0974 9.86384 18.143 10.5911C18.1953 10.5789 18.2493 10.5664 18.3052 10.5534C19.5753 10.2544 20.8436 9.95575 22.1142 9.65853C22.2349 9.63046 22.3624 9.60654 22.4845 9.60858C22.8494 9.61695 23.1115 9.91923 23.1095 10.319C23.1082 10.7225 22.9366 11.0305 22.5861 11.2394C22.5476 11.2616 22.5278 11.3157 22.4967 11.3533C22.5389 11.3797 22.5764 11.4185 22.6221 11.4269C23.0844 11.5191 23.3025 11.8525 23.1885 12.3107C23.115 12.6073 22.9474 12.8345 22.676 12.9832C22.6407 13.0028 22.6219 13.0528 22.5943 13.0896C22.6303 13.1136 22.6638 13.1515 22.7032 13.1575C23.1531 13.2374 23.3773 13.5561 23.2936 14.0053C23.2351 14.3175 23.0664 14.5564 22.7885 14.7179C22.7432 14.7437 22.7148 14.8016 22.6622 14.8614Z" fill="white"/>
<path d="M14.052 15.7579C14.27 16.696 14.4845 17.635 14.7098 18.5715C14.7455 18.7172 14.719 18.7747 14.5694 18.8095C13.3765 19.0811 12.1853 19.3598 10.9927 19.6408C10.8665 19.6702 10.8126 19.6428 10.7842 19.5124C10.3471 17.6154 9.90637 15.7193 9.46203 13.824C9.43225 13.6959 9.46088 13.6474 9.59068 13.6172C10.794 13.3413 11.995 13.0641 13.1962 12.7792C13.3314 12.7477 13.3675 12.7888 13.3943 12.9119C13.6094 13.8621 13.8318 14.8107 14.052 15.7579Z" fill="white"/>
<defs>
<clipPath id="clip0_196_52">
<rect width="29.7208" height="25.6564" fill="white" transform="translate(46.5957 10.4282) rotate(30)"/>
</clipPath>
</defs>
</svg>
