<svg width="35" height="35" viewBox="0 0 35 35" fill="none" xmlns="http://www.w3.org/2000/svg">
<rect width="35" height="35" rx="8" fill="#FFC20E"/>
<path d="M21.6059 8.00002H13.043C12.4691 8.00002 12 8.46461 12 9.03395V17.524C12 18.0979 12.4646 18.5579 13.043 18.5579H16.9874C16.9601 19.5691 16.5365 20.6667 15.9262 21.6415C15.2384 22.7392 13.7763 23.9553 13.7627 23.9644C13.6488 24.0737 13.5623 24.2012 13.5623 24.3789C13.5623 24.5155 13.6306 24.6203 13.708 24.7296L16.4591 27.8131C16.4591 27.8131 16.5912 27.9543 16.705 27.9817C16.828 28.009 16.9692 28.0135 17.0694 27.9407C21.8337 24.2741 22.526 19.6784 22.6444 17.1915C22.6444 17.1778 22.6444 9.03395 22.6444 9.03395C22.6444 8.46461 22.1798 8.00002 21.6059 8.00002Z" fill="white"/>
</svg>
