<svg width="60" height="60" viewBox="0 0 60 60" fill="none" xmlns="http://www.w3.org/2000/svg">
<mask id="mask0_97_886" style="mask-type:alpha" maskUnits="userSpaceOnUse" x="0" y="0" width="60" height="60">
<rect width="60" height="60" fill="#D9D9D9"/>
</mask>
<g mask="url(#mask0_97_886)">
<path d="M30.5625 46.75C30.9375 46.7083 31.2292 46.5733 31.4375 46.345C31.6458 46.115 31.75 45.8542 31.75 45.5625C31.75 45.2292 31.625 44.9583 31.375 44.75C31.125 44.5417 30.8125 44.4583 30.4375 44.5C28.7292 44.625 26.8225 44.0942 24.7175 42.9075C22.6142 41.7192 21.3125 39.7292 20.8125 36.9375C20.7292 36.5625 20.5942 36.2708 20.4075 36.0625C20.2192 35.8542 19.9792 35.75 19.6875 35.75C19.3542 35.75 19.0733 35.875 18.845 36.125C18.615 36.375 18.5417 36.75 18.625 37.25C19.25 40.7083 20.8442 43.1875 23.4075 44.6875C25.9692 46.1875 28.3542 46.875 30.5625 46.75ZM30 52.5C25 52.5 20.8333 50.7817 17.5 47.345C14.1667 43.9067 12.5 39.625 12.5 34.5C12.5 30.9167 13.9475 26.9475 16.8425 22.5925C19.7392 18.2392 24.125 13.4583 30 8.25C35.875 13.4583 40.26 18.2392 43.155 22.5925C46.0517 26.9475 47.5 30.9167 47.5 34.5C47.5 39.625 45.8333 43.9067 42.5 47.345C39.1667 50.7817 35 52.5 30 52.5ZM30 50C34.3333 50 37.9167 48.5317 40.75 45.595C43.5833 42.6567 45 38.9583 45 34.5C45 31.4583 43.74 28.0208 41.22 24.1875C38.6983 20.3542 34.9583 16.1667 30 11.625C25.0417 16.1667 21.3025 20.3542 18.7825 24.1875C16.2608 28.0208 15 31.4583 15 34.5C15 38.9583 16.4167 42.6567 19.25 45.595C22.0833 48.5317 25.6667 50 30 50Z" fill="#3D3D3D"/>
</g>
</svg>
