<svg width="60" height="60" viewBox="0 0 60 60" fill="none" xmlns="http://www.w3.org/2000/svg">
<mask id="mask0_97_865" style="mask-type:alpha" maskUnits="userSpaceOnUse" x="0" y="0" width="60" height="60">
<rect width="60" height="60" fill="#D9D9D9"/>
</mask>
<g mask="url(#mask0_97_865)">
<path d="M7.5 50.3125V47.8125H28.75V19.5625C27.5833 19.3542 26.5417 18.8233 25.625 17.97C24.7083 17.115 24.125 16.0208 23.875 14.6875H15.3125L22.5 32.75C22.4167 34.4167 21.6458 35.8333 20.1875 37C18.7292 38.1667 17 38.75 15 38.75C13 38.75 11.2708 38.1667 9.8125 37C8.35417 35.8333 7.58333 34.4167 7.5 32.75L14.6875 14.6875H10V12.1875H23.875C24.1667 10.8125 24.875 9.635 26 8.655C27.125 7.67667 28.4583 7.1875 30 7.1875C31.5417 7.1875 32.875 7.67667 34 8.655C35.125 9.635 35.8333 10.8125 36.125 12.1875H50V14.6875H45.3125L52.5 32.75C52.4167 34.4167 51.6458 35.8333 50.1875 37C48.7292 38.1667 47 38.75 45 38.75C43 38.75 41.2708 38.1667 39.8125 37C38.3542 35.8333 37.5833 34.4167 37.5 32.75L44.6875 14.6875H36.125C35.875 16.0208 35.2917 17.115 34.375 17.97C33.4583 18.8233 32.4167 19.3542 31.25 19.5625V47.8125H52.5V50.3125H7.5ZM40 32.5H50L45 19.9375L40 32.5ZM10 32.5H20L15 19.9375L10 32.5ZM30 17.1875C31.0417 17.1875 31.9267 16.8233 32.655 16.095C33.385 15.365 33.75 14.4792 33.75 13.4375C33.75 12.4375 33.385 11.5625 32.655 10.8125C31.9267 10.0625 31.0417 9.6875 30 9.6875C28.9583 9.6875 28.0733 10.0625 27.345 10.8125C26.615 11.5625 26.25 12.4375 26.25 13.4375C26.25 14.4792 26.615 15.365 27.345 16.095C28.0733 16.8233 28.9583 17.1875 30 17.1875Z" fill="#3D3D3D"/>
</g>
</svg>
