<svg width="60" height="60" viewBox="0 0 60 60" fill="none" xmlns="http://www.w3.org/2000/svg">
<mask id="mask0_97_880" style="mask-type:alpha" maskUnits="userSpaceOnUse" x="0" y="0" width="60" height="60">
<rect width="60" height="60" fill="#D9D9D9"/>
</mask>
<g mask="url(#mask0_97_880)">
<path d="M34.6875 24V21.625C36.0625 20.9583 37.5108 20.4583 39.0325 20.125C40.5525 19.7917 42.125 19.625 43.75 19.625C44.6667 19.625 45.5517 19.6875 46.405 19.8125C47.26 19.9375 48.1458 20.1042 49.0625 20.3125V22.5625C48.1875 22.2708 47.3333 22.0725 46.5 21.9675C45.6667 21.8642 44.75 21.8125 43.75 21.8125C42.125 21.8125 40.5417 22 39 22.375C37.4583 22.75 36.0208 23.2917 34.6875 24ZM34.6875 37.625V35.1875C35.9792 34.5208 37.4167 34.0208 39 33.6875C40.5833 33.3542 42.1667 33.1875 43.75 33.1875C44.6667 33.1875 45.5517 33.2392 46.405 33.3425C47.26 33.4475 48.1458 33.625 49.0625 33.875V36.125C48.1875 35.8333 47.3333 35.635 46.5 35.53C45.6667 35.4267 44.75 35.375 43.75 35.375C42.125 35.375 40.5417 35.5725 39 35.9675C37.4583 36.3642 36.0208 36.9167 34.6875 37.625ZM34.6875 30.875V28.4375C36.0625 27.7708 37.5108 27.26 39.0325 26.905C40.5525 26.5517 42.125 26.375 43.75 26.375C44.6667 26.375 45.5517 26.4375 46.405 26.5625C47.26 26.6875 48.1458 26.8542 49.0625 27.0625V29.375C48.1875 29.0833 47.3333 28.885 46.5 28.78C45.6667 28.6767 44.75 28.625 43.75 28.625C42.125 28.625 40.5417 28.8233 39 29.22C37.4583 29.615 36.0208 30.1667 34.6875 30.875ZM16.25 40.125C18.4167 40.125 20.5317 40.375 22.595 40.875C24.6567 41.375 26.7083 42.1875 28.75 43.3125V18.75C26.9583 17.4583 24.9692 16.4892 22.7825 15.8425C20.5942 15.1975 18.4167 14.875 16.25 14.875C14.75 14.875 13.4375 14.9683 12.3125 15.155C11.1875 15.3433 9.9375 15.6875 8.5625 16.1875C8.1875 16.3125 7.91667 16.49 7.75 16.72C7.58333 16.9483 7.5 17.2083 7.5 17.5V40.0625C7.5 40.5208 7.65667 40.8542 7.97 41.0625C8.28167 41.2708 8.64583 41.2917 9.0625 41.125C9.97917 40.7917 11.0317 40.5417 12.22 40.375C13.4067 40.2083 14.75 40.125 16.25 40.125ZM31.25 43.3125C33.2917 42.1875 35.3442 41.375 37.4075 40.875C39.4692 40.375 41.5833 40.125 43.75 40.125C45.25 40.125 46.5942 40.2083 47.7825 40.375C48.9692 40.5417 50.0208 40.7917 50.9375 41.125C51.3542 41.2917 51.7183 41.2708 52.03 41.0625C52.3433 40.8542 52.5 40.5208 52.5 40.0625V17.5C52.5 17.2083 52.4167 16.9583 52.25 16.75C52.0833 16.5417 51.8125 16.3542 51.4375 16.1875C50.0625 15.6875 48.8125 15.3433 47.6875 15.155C46.5625 14.9683 45.25 14.875 43.75 14.875C41.5833 14.875 39.4058 15.1975 37.2175 15.8425C35.0308 16.4892 33.0417 17.4583 31.25 18.75V43.3125ZM30 46.9375C27.9583 45.5208 25.7708 44.4483 23.4375 43.72C21.1042 42.99 18.7083 42.625 16.25 42.625C14.9583 42.625 13.6875 42.7292 12.4375 42.9375C11.1875 43.1458 9.95833 43.5 8.75 44C7.83333 44.3333 6.97917 44.2083 6.1875 43.625C5.39583 43.0417 5 42.25 5 41.25V17.0625C5 16.4375 5.16667 15.8642 5.5 15.3425C5.83333 14.8225 6.29167 14.4583 6.875 14.25C8.33333 13.5833 9.85417 13.1042 11.4375 12.8125C13.0208 12.5208 14.625 12.375 16.25 12.375C18.7083 12.375 21.1042 12.7292 23.4375 13.4375C25.7708 14.1458 27.9583 15.1875 30 16.5625C32.0417 15.1875 34.2292 14.1458 36.5625 13.4375C38.8958 12.7292 41.2917 12.375 43.75 12.375C45.375 12.375 46.9792 12.5208 48.5625 12.8125C50.1458 13.1042 51.6667 13.5833 53.125 14.25C53.7083 14.4583 54.1667 14.8225 54.5 15.3425C54.8333 15.8642 55 16.4375 55 17.0625V41.25C55 42.25 54.5733 43.0317 53.72 43.595C52.865 44.1567 51.9375 44.25 50.9375 43.875C49.8125 43.4167 48.6458 43.0942 47.4375 42.9075C46.2292 42.7192 45 42.625 43.75 42.625C41.2917 42.625 38.8958 42.99 36.5625 43.72C34.2292 44.4483 32.0417 45.5208 30 46.9375Z" fill="#3D3D3D"/>
</g>
</svg>
