<svg width="60" height="60" viewBox="0 0 60 60" fill="none" xmlns="http://www.w3.org/2000/svg">
<mask id="mask0_97_871" style="mask-type:alpha" maskUnits="userSpaceOnUse" x="0" y="0" width="60" height="60">
<rect width="60" height="60" fill="#D9D9D9"/>
</mask>
<g mask="url(#mask0_97_871)">
<path d="M17.625 50C17.25 50 16.9483 49.8858 16.72 49.6575C16.49 49.4275 16.375 49.125 16.375 48.75V44C15.5417 43.6667 14.6875 42.9267 13.8125 41.78C12.9375 40.635 12.5 39.3125 12.5 37.8125V15C12.5 12.4167 13.9067 10.5208 16.72 9.3125C19.5317 8.10417 23.9583 7.5 30 7.5C36.25 7.5 40.7292 8.07333 43.4375 9.22C46.1458 10.365 47.5 12.2917 47.5 15V37.8125C47.5 39.3125 47.0625 40.635 46.1875 41.78C45.3125 42.9267 44.4583 43.6667 43.625 44V48.75C43.625 49.125 43.51 49.4275 43.28 49.6575C43.0517 49.8858 42.75 50 42.375 50H41.8125C41.4792 50 41.1875 49.8858 40.9375 49.6575C40.6875 49.4275 40.5625 49.125 40.5625 48.75V45H19.4375V48.75C19.4375 49.125 19.3125 49.4275 19.0625 49.6575C18.8125 49.8858 18.5208 50 18.1875 50H17.625ZM15 27.5H45V16.375H15V27.5ZM21.25 39.0625C22.0417 39.0625 22.7083 38.7808 23.25 38.2175C23.7917 37.6558 24.0625 37 24.0625 36.25C24.0625 35.4583 23.7817 34.7917 23.22 34.25C22.6567 33.7083 22 33.4375 21.25 33.4375C20.4583 33.4375 19.7917 33.7183 19.25 34.28C18.7083 34.8433 18.4375 35.5 18.4375 36.25C18.4375 37.0417 18.7192 37.7083 19.2825 38.25C19.8442 38.7917 20.5 39.0625 21.25 39.0625ZM38.75 39.0625C39.5417 39.0625 40.2083 38.7808 40.75 38.2175C41.2917 37.6558 41.5625 37 41.5625 36.25C41.5625 35.4583 41.2817 34.7917 40.72 34.25C40.1567 33.7083 39.5 33.4375 38.75 33.4375C37.9583 33.4375 37.2917 33.7183 36.75 34.28C36.2083 34.8433 35.9375 35.5 35.9375 36.25C35.9375 37.0417 36.2192 37.7083 36.7825 38.25C37.3442 38.7917 38 39.0625 38.75 39.0625ZM15.25 13.875H44.8125C44.3542 12.5833 43.01 11.6142 40.78 10.9675C38.5517 10.3225 34.9583 10 30 10C25.125 10 21.5625 10.3225 19.3125 10.9675C17.0625 11.6142 15.7083 12.5833 15.25 13.875ZM20 42.5H40C41.375 42.5 42.5525 42.0108 43.5325 41.0325C44.5108 40.0525 45 38.875 45 37.5V30H15V37.5C15 38.875 15.49 40.0525 16.47 41.0325C17.4483 42.0108 18.625 42.5 20 42.5Z" fill="#3D3D3D"/>
</g>
</svg>
