<svg width="60" height="60" viewBox="0 0 60 60" fill="none" xmlns="http://www.w3.org/2000/svg">
<mask id="mask0_97_883" style="mask-type:alpha" maskUnits="userSpaceOnUse" x="0" y="0" width="60" height="60">
<rect width="60" height="60" fill="#D9D9D9"/>
</mask>
<g mask="url(#mask0_97_883)">
<path d="M46.25 18.25C46.7917 18.25 47.26 18.0517 47.655 17.655C48.0517 17.26 48.25 16.7917 48.25 16.25C48.25 15.7083 48.0517 15.24 47.655 14.845C47.26 14.4483 46.7917 14.25 46.25 14.25C45.7083 14.25 45.24 14.4483 44.845 14.845C44.4483 15.24 44.25 15.7083 44.25 16.25C44.25 16.7917 44.4483 17.26 44.845 17.655C45.24 18.0517 45.7083 18.25 46.25 18.25ZM36.25 18.25C36.7917 18.25 37.26 18.0517 37.655 17.655C38.0517 17.26 38.25 16.7917 38.25 16.25C38.25 15.7083 38.0517 15.24 37.655 14.845C37.26 14.4483 36.7917 14.25 36.25 14.25C35.7083 14.25 35.24 14.4483 34.845 14.845C34.4483 15.24 34.25 15.7083 34.25 16.25C34.25 16.7917 34.4483 17.26 34.845 17.655C35.24 18.0517 35.7083 18.25 36.25 18.25ZM35.5625 26.75H46.9375C46.7708 25.6667 46.1358 24.7708 45.0325 24.0625C43.9275 23.3542 42.6667 23 41.25 23C39.75 23 38.4583 23.3542 37.375 24.0625C36.2917 24.7708 35.6875 25.6667 35.5625 26.75ZM18.75 52.5C15.2917 52.5 12.3442 51.2817 9.9075 48.845C7.46917 46.4067 6.25 43.4583 6.25 40V25H31.25V40C31.25 43.4583 30.0317 46.4067 27.595 48.845C25.1567 51.2817 22.2083 52.5 18.75 52.5ZM18.75 50C21.5 50 23.8542 49.0208 25.8125 47.0625C27.7708 45.1042 28.75 42.75 28.75 40V27.5H8.75V40C8.75 42.75 9.72917 45.1042 11.6875 47.0625C13.6458 49.0208 16 50 18.75 50ZM41.25 35C40.125 35 38.9792 34.8433 37.8125 34.53C36.6458 34.2183 35.6667 33.7917 34.875 33.25L35 30.25C35.9167 30.9583 36.8858 31.51 37.9075 31.905C38.9275 32.3017 40.0417 32.5 41.25 32.5C44 32.5 46.3542 31.5208 48.3125 29.5625C50.2708 27.6042 51.25 25.25 51.25 22.5V10H31.25V21.25H28.75V7.5H53.75V22.5C53.75 25.9583 52.5317 28.9058 50.095 31.3425C47.6567 33.7808 44.7083 35 41.25 35ZM13.75 35.75C14.2917 35.75 14.76 35.5517 15.155 35.155C15.5517 34.76 15.75 34.2917 15.75 33.75C15.75 33.2083 15.5517 32.74 15.155 32.345C14.76 31.9483 14.2917 31.75 13.75 31.75C13.2083 31.75 12.74 31.9483 12.345 32.345C11.9483 32.74 11.75 33.2083 11.75 33.75C11.75 34.2917 11.9483 34.76 12.345 35.155C12.74 35.5517 13.2083 35.75 13.75 35.75ZM23.75 35.75C24.2917 35.75 24.76 35.5517 25.155 35.155C25.5517 34.76 25.75 34.2917 25.75 33.75C25.75 33.2083 25.5517 32.74 25.155 32.345C24.76 31.9483 24.2917 31.75 23.75 31.75C23.2083 31.75 22.74 31.9483 22.345 32.345C21.9483 32.74 21.75 33.2083 21.75 33.75C21.75 34.2917 21.9483 34.76 22.345 35.155C22.74 35.5517 23.2083 35.75 23.75 35.75ZM18.75 44.25C20.25 44.25 21.5417 43.8958 22.625 43.1875C23.7083 42.4792 24.3125 41.5833 24.4375 40.5H13.0625C13.1875 41.5833 13.7917 42.4792 14.875 43.1875C15.9583 43.8958 17.25 44.25 18.75 44.25Z" fill="#3D3D3D"/>
</g>
</svg>
