<svg width="60" height="60" viewBox="0 0 60 60" fill="none" xmlns="http://www.w3.org/2000/svg">
<mask id="mask0_97_874" style="mask-type:alpha" maskUnits="userSpaceOnUse" x="0" y="0" width="60" height="60">
<rect width="60" height="60" fill="#D9D9D9"/>
</mask>
<g mask="url(#mask0_97_874)">
<path d="M28.125 41.25H31.875V31.875H41.25V28.125H31.875V18.75H28.125V28.125H18.75V31.875H28.125V41.25ZM14.0625 50C12.8958 50 11.9275 49.615 11.1575 48.845C10.3858 48.0733 10 47.1042 10 45.9375V14.0625C10 12.8958 10.3858 11.9275 11.1575 11.1575C11.9275 10.3858 12.8958 10 14.0625 10H45.9375C47.1042 10 48.0733 10.3858 48.845 11.1575C49.615 11.9275 50 12.8958 50 14.0625V45.9375C50 47.1042 49.615 48.0733 48.845 48.845C48.0733 49.615 47.1042 50 45.9375 50H14.0625ZM14.0625 47.5H45.9375C46.3542 47.5 46.7183 47.3433 47.03 47.03C47.3433 46.7183 47.5 46.3542 47.5 45.9375V14.0625C47.5 13.6458 47.3433 13.2817 47.03 12.97C46.7183 12.6567 46.3542 12.5 45.9375 12.5H14.0625C13.6458 12.5 13.2817 12.6567 12.97 12.97C12.6567 13.2817 12.5 13.6458 12.5 14.0625V45.9375C12.5 46.3542 12.6567 46.7183 12.97 47.03C13.2817 47.3433 13.6458 47.5 14.0625 47.5Z" fill="#3D3D3D"/>
</g>
</svg>
