<svg width="60" height="60" viewBox="0 0 60 60" fill="none" xmlns="http://www.w3.org/2000/svg">
<mask id="mask0_97_877" style="mask-type:alpha" maskUnits="userSpaceOnUse" x="0" y="0" width="60" height="60">
<rect width="60" height="60" fill="#D9D9D9"/>
</mask>
<g mask="url(#mask0_97_877)">
<path d="M45.625 33.75V26.25H38.125V23.75H45.625V16.25H48.125V23.75H55.625V26.25H48.125V33.75H45.625ZM22.5 28.4375C20.4167 28.4375 18.6458 27.7083 17.1875 26.25C15.7292 24.7917 15 23.0208 15 20.9375C15 18.8958 15.7292 17.135 17.1875 15.655C18.6458 14.1767 20.4167 13.4375 22.5 13.4375C24.5833 13.4375 26.3542 14.1767 27.8125 15.655C29.2708 17.135 30 18.8958 30 20.9375C30 23.0208 29.2708 24.7917 27.8125 26.25C26.3542 27.7083 24.5833 28.4375 22.5 28.4375ZM5 46.5625V42.4375C5 41.3958 5.30167 40.4267 5.905 39.53C6.51 38.635 7.3125 37.9375 8.3125 37.4375C10.6875 36.3125 13.0517 35.4683 15.405 34.905C17.76 34.3433 20.125 34.0625 22.5 34.0625C24.875 34.0625 27.24 34.3433 29.595 34.905C31.9483 35.4683 34.3125 36.3125 36.6875 37.4375C37.6875 37.9375 38.4892 38.635 39.0925 39.53C39.6975 40.4267 40 41.3958 40 42.4375V46.5625H5ZM7.5 44.0625H37.5V42.4375C37.5 41.8542 37.3233 41.3225 36.97 40.8425C36.615 40.3642 36.125 39.9583 35.5 39.625C33.4167 38.625 31.2817 37.865 29.095 37.345C26.9067 36.8233 24.7083 36.5625 22.5 36.5625C20.2917 36.5625 18.0942 36.8233 15.9075 37.345C13.7192 37.865 11.5833 38.625 9.5 39.625C8.875 39.9583 8.38583 40.3642 8.0325 40.8425C7.6775 41.3225 7.5 41.8542 7.5 42.4375V44.0625ZM22.5 25.9375C23.875 25.9375 25.0525 25.4475 26.0325 24.4675C27.0108 23.4892 27.5 22.3125 27.5 20.9375C27.5 19.5625 27.0108 18.3858 26.0325 17.4075C25.0525 16.4275 23.875 15.9375 22.5 15.9375C21.125 15.9375 19.9483 16.4275 18.97 17.4075C17.99 18.3858 17.5 19.5625 17.5 20.9375C17.5 22.3125 17.99 23.4892 18.97 24.4675C19.9483 25.4475 21.125 25.9375 22.5 25.9375Z" fill="#3D3D3D"/>
</g>
</svg>
