<svg width="60" height="60" viewBox="0 0 60 60" fill="none" xmlns="http://www.w3.org/2000/svg">
<mask id="mask0_97_868" style="mask-type:alpha" maskUnits="userSpaceOnUse" x="0" y="0" width="60" height="60">
<rect width="60" height="60" fill="#D9D9D9"/>
</mask>
<g mask="url(#mask0_97_868)">
<path d="M32.2501 7.625C37.6251 8.125 42.2084 10.25 46.0001 14C49.7917 17.75 51.9376 22.3125 52.4376 27.6875H36.3751C36.0001 26.7292 35.4584 25.9058 34.7501 25.2175C34.0417 24.5308 33.2084 24 32.2501 23.625V7.625ZM34.7501 10.625V22C35.4167 22.4167 36.0209 22.885 36.5626 23.405C37.1042 23.9267 37.5626 24.5208 37.9376 25.1875H49.4376C48.5626 21.5625 46.8026 18.4375 44.1576 15.8125C41.5109 13.1875 38.3751 11.4583 34.7501 10.625ZM27.8751 7.625V23.625C26.5001 24.125 25.3959 24.9583 24.5626 26.125C23.7292 27.2917 23.3126 28.5833 23.3126 30C23.3126 31.4167 23.7292 32.6875 24.5626 33.8125C25.3959 34.9375 26.5001 35.75 27.8751 36.25V52.375C22.0834 51.7917 17.2501 49.375 13.3751 45.125C9.50006 40.875 7.56256 35.8333 7.56256 30C7.56256 24.1667 9.50006 19.115 13.3751 14.845C17.2501 10.5733 22.0834 8.16667 27.8751 7.625ZM25.3751 10.625C20.8751 11.625 17.1984 13.9475 14.3451 17.5925C11.4901 21.2392 10.0626 25.375 10.0626 30C10.0626 34.625 11.4901 38.76 14.3451 42.405C17.1984 46.0517 20.8751 48.375 25.3751 49.375V37.8125C24.0417 36.8958 22.9484 35.76 22.0951 34.405C21.2401 33.0517 20.8126 31.5833 20.8126 30C20.8126 28.375 21.2292 26.885 22.0626 25.53C22.8959 24.1767 24.0001 23.0417 25.3751 22.125V10.625ZM36.3751 32.1875H52.4376C51.8959 37.5625 49.7401 42.1358 45.9701 45.9075C42.1984 49.6775 37.6251 51.8333 32.2501 52.375V36.25C33.2501 35.9167 34.0942 35.3958 34.7826 34.6875C35.4692 33.9792 36.0001 33.1458 36.3751 32.1875ZM37.9376 34.6875C37.5209 35.3125 37.0526 35.8958 36.5326 36.4375C36.0109 36.9792 35.4167 37.4375 34.7501 37.8125V49.375C38.4167 48.5417 41.5626 46.8025 44.1876 44.1575C46.8126 41.5108 48.5626 38.3542 49.4376 34.6875H37.9376Z" fill="#3D3D3D"/>
</g>
</svg>
