<svg width="30" height="30" viewBox="0 0 30 30" fill="none" xmlns="http://www.w3.org/2000/svg">
<mask id="mask0_97_715" style="mask-type:alpha" maskUnits="userSpaceOnUse" x="0" y="0" width="30" height="30">
<rect width="30" height="30" fill="#D9D9D9"/>
</mask>
<g mask="url(#mask0_97_715)">
<path d="M24.4374 25.7188L16.5624 17.875C15.9374 18.3958 15.2186 18.8021 14.4061 19.0938C13.5936 19.3854 12.7603 19.5312 11.9061 19.5312C9.76029 19.5312 7.94779 18.7917 6.46863 17.3125C4.98946 15.8333 4.24988 14.0208 4.24988 11.875C4.24988 9.75 4.98946 7.9425 6.46863 6.4525C7.94779 4.96333 9.76029 4.21875 11.9061 4.21875C14.0311 4.21875 15.8332 4.95833 17.3124 6.4375C18.7915 7.91667 19.5311 9.72917 19.5311 11.875C19.5311 12.7708 19.3853 13.625 19.0936 14.4375C18.802 15.25 18.4061 15.9583 17.9061 16.5625L25.7499 24.4062L24.4374 25.7188ZM11.9061 17.6562C13.5103 17.6562 14.8699 17.0937 15.9849 15.9688C17.099 14.8438 17.6561 13.4792 17.6561 11.875C17.6561 10.2708 17.099 8.90625 15.9849 7.78125C14.8699 6.65625 13.5103 6.09375 11.9061 6.09375C10.2811 6.09375 8.91154 6.65625 7.79738 7.78125C6.68238 8.90625 6.12488 10.2708 6.12488 11.875C6.12488 13.4792 6.68238 14.8438 7.79738 15.9688C8.91154 17.0937 10.2811 17.6562 11.9061 17.6562Z" fill="#1C1B1F"/>
</g>
</svg>
