<svg width="110" height="110" viewBox="0 0 110 110" fill="none" xmlns="http://www.w3.org/2000/svg">
<mask id="mask0_157_438" style="mask-type:alpha" maskUnits="userSpaceOnUse" x="0" y="0" width="110" height="110">
<rect width="110" height="110" fill="#D9D9D9"/>
</mask>
<g mask="url(#mask0_157_438)">
<path d="M71.2712 54.0834C67.9101 51.3334 64.798 48.6216 61.935 45.948C59.0689 43.2744 56.6046 40.6772 54.5421 38.1563C52.4796 35.6355 50.8571 33.2292 49.6746 30.9376C48.489 28.6459 47.8962 26.507 47.8962 24.5209C47.8962 21.389 48.9855 18.7337 51.1642 16.5551C53.3397 14.3795 55.9935 13.2917 59.1254 13.2917C61.1879 13.2917 63.2703 13.883 65.3725 15.0655C67.4717 16.2511 69.4379 18.1042 71.2712 20.6251C73.1046 18.1042 75.0723 16.2511 77.1746 15.0655C79.2737 13.883 81.3546 13.2917 83.4171 13.2917C86.549 13.2917 89.2043 14.3795 91.3829 16.5551C93.5585 18.7337 94.6462 21.389 94.6462 24.5209C94.6462 26.507 94.055 28.6459 92.8725 30.9376C91.6869 33.2292 90.0629 35.6355 88.0004 38.1563C85.9379 40.6772 83.4751 43.2744 80.6121 45.948C77.746 48.6216 74.6324 51.3334 71.2712 54.0834ZM71.2712 49.7292C76.6949 45.2223 81.4126 40.7536 85.4246 36.323C89.4335 31.8924 91.4379 27.9584 91.4379 24.5209C91.4379 22.2292 90.674 20.3195 89.1462 18.7917C87.6185 17.264 85.7087 16.5001 83.4171 16.5001C82.1185 16.5001 80.6487 16.9202 79.0079 17.7605C77.364 18.6008 75.549 20.3195 73.5629 22.9167L71.2712 25.8959L68.9796 22.9167C66.9935 20.3195 65.18 18.6008 63.5392 17.7605C61.8953 16.9202 60.424 16.5001 59.1254 16.5001C56.8337 16.5001 54.924 17.264 53.3962 18.7917C51.8685 20.3195 51.1046 22.2292 51.1046 24.5209C51.1046 27.9584 53.1106 31.8924 57.1225 36.323C61.1314 40.7536 65.8476 45.2223 71.2712 49.7292ZM62.1046 94.6459L26.3546 84.1042V89.8334H10.7712V56.3751H37.8129L65.3129 66.4584C66.6879 66.9931 67.9101 67.9663 68.9796 69.378C70.049 70.7927 70.5837 72.7223 70.5837 75.1667H85.7087C88.1532 75.1667 89.9483 76.0452 91.0942 77.8022C92.24 79.5591 92.8129 81.889 92.8129 84.7917V85.0209L62.1046 94.6459ZM13.9796 86.6251H23.1462V59.5834H13.9796V86.6251ZM61.8754 91.2084L89.3754 82.7292C89.3754 81.4306 89.0515 80.3811 88.4037 79.5805C87.7529 78.7769 86.8546 78.3751 85.7087 78.3751H64.3962C62.4101 78.3751 60.3858 78.2422 58.3233 77.9763C56.2608 77.7074 54.4657 77.3056 52.9379 76.7709L43.7712 73.7917L45.1462 70.5834L53.6254 73.5626C55.2296 74.1737 57.0247 74.5938 59.0108 74.823C60.9969 75.0522 63.7851 75.1667 67.3754 75.1667C67.3754 73.5626 67.108 72.3022 66.5733 71.3855C66.0386 70.4688 65.2365 69.8195 64.1671 69.4376L37.3546 59.5834H26.3546V80.6667L61.8754 91.2084Z" fill="white"/>
</g>
</svg>
