<svg width="110" height="110" viewBox="0 0 110 110" fill="none" xmlns="http://www.w3.org/2000/svg">
<mask id="mask0_157_464" style="mask-type:alpha" maskUnits="userSpaceOnUse" x="0" y="0" width="110" height="110">
<rect width="110" height="110" fill="#D9D9D9"/>
</mask>
<g mask="url(#mask0_157_464)">
<path d="M13.5208 91.2084V14.6667H53.3958V33H96.4791V71.5H93.2708V36.2084H53.3958V51.3334H64.8541V54.5417H53.3958V69.6667H64.8541V72.875H53.3958V88H76.3124V91.2084H13.5208ZM16.7291 88H31.8541V72.875H16.7291V88ZM16.7291 69.6667H31.8541V54.5417H16.7291V69.6667ZM16.7291 51.3334H31.8541V36.2084H16.7291V51.3334ZM16.7291 33H31.8541V17.875H16.7291V33ZM35.0624 88H50.1874V72.875H35.0624V88ZM35.0624 69.6667H50.1874V54.5417H35.0624V69.6667ZM35.0624 51.3334H50.1874V36.2084H35.0624V51.3334ZM35.0624 33H50.1874V17.875H35.0624V33ZM93.2708 100.375V91.2084H84.1041V88H93.2708V78.8334H96.4791V88H105.646V91.2084H96.4791V100.375H93.2708ZM76.3124 54.5417V51.3334H79.5208V54.5417H76.3124ZM76.3124 72.875V69.6667H79.5208V72.875H76.3124Z" fill="white"/>
</g>
</svg>
