<svg width="110" height="110" viewBox="0 0 110 110" fill="none" xmlns="http://www.w3.org/2000/svg">
<mask id="mask0_157_446" style="mask-type:alpha" maskUnits="userSpaceOnUse" x="0" y="0" width="110" height="110">
<rect width="110" height="110" fill="#D9D9D9"/>
</mask>
<g mask="url(#mask0_157_446)">
<path d="M34.375 12.6042H75.625V44C75.625 45.6042 75.1667 47.1121 74.25 48.5238C73.3333 49.9385 72.1111 51.1042 70.5833 52.0209L55.4583 61.1875L58.8958 72.1875H70.8125L60.9583 79.0625L64.8542 91.2084L55 83.6459L45.1458 91.2084L49.0417 79.0625L39.1875 72.1875H51.1042L54.5417 61.1875L39.1875 52.25C37.6597 51.4097 36.4757 50.244 35.6354 48.7529C34.7951 47.2649 34.375 45.6806 34.375 44V12.6042ZM37.5833 15.8125V44C37.5833 45.1459 37.8706 46.1954 38.445 47.1488C39.0164 48.1052 39.7986 48.8889 40.7917 49.5L53.3958 56.8334V15.8125H37.5833ZM72.4167 15.8125H56.6042V56.8334L69.2083 49.5C70.2014 48.8889 70.9851 48.1052 71.5596 47.1488C72.131 46.1954 72.4167 45.1459 72.4167 44V15.8125Z" fill="white"/>
</g>
</svg>
