<svg width="110" height="110" viewBox="0 0 110 110" fill="none" xmlns="http://www.w3.org/2000/svg">
<mask id="mask0_157_572" style="mask-type:alpha" maskUnits="userSpaceOnUse" x="0" y="0" width="110" height="110">
<rect width="110" height="110" fill="#D9D9D9"/>
</mask>
<g mask="url(#mask0_157_572)">
<path d="M42.625 91.6666H67.375C68.2153 91.6666 68.9608 91.4176 69.6117 90.9196C70.2594 90.4246 70.6979 89.7569 70.9271 88.9166L76.0833 68.5208H33.9167L39.0729 88.9166C39.3021 89.7569 39.7406 90.4246 40.3883 90.9196C41.0392 91.4176 41.7847 91.6666 42.625 91.6666ZM42.625 94.875C41.0972 94.875 39.7039 94.3968 38.445 93.4404C37.1831 92.487 36.3611 91.2465 35.9792 89.7187L30.5937 68.5208H79.4062L74.0208 89.7187C73.6389 91.2465 72.8185 92.487 71.5596 93.4404C70.2976 94.3968 68.9028 94.875 67.375 94.875H42.625ZM28.875 65.3125H81.3542C82.4236 65.3125 83.3021 64.9687 83.9896 64.2812C84.6771 63.5937 85.0208 62.7153 85.0208 61.6458V55H25.2083V61.6458C25.2083 62.7153 25.5521 63.5937 26.2396 64.2812C26.9271 64.9687 27.8056 65.3125 28.875 65.3125ZM55 40.6771C55.7639 35.1771 58.0937 30.4791 61.9896 26.5833C65.8854 22.6875 70.5833 20.3958 76.0833 19.7083C75.3958 24.8264 73.2386 29.3135 69.6117 33.1696C65.9817 37.0287 61.6458 39.493 56.6042 40.5625V51.7916H88.2292V61.6458C88.2292 63.5555 87.56 65.178 86.2217 66.5133C84.8864 67.8516 83.2639 68.5208 81.3542 68.5208H28.875C26.9653 68.5208 25.3428 67.8516 24.0075 66.5133C22.6692 65.178 22 63.5555 22 61.6458V51.7916H53.3958V40.5625C48.3542 39.493 44.0382 37.0486 40.4479 33.2291C36.8576 29.4097 34.6806 24.9028 33.9167 19.7083C39.4167 20.3958 44.1146 22.6875 48.0104 26.5833C51.9062 30.4791 54.2361 35.1771 55 40.6771Z" fill="white"/>
</g>
</svg>
