<svg width="110" height="110" viewBox="0 0 110 110" fill="none" xmlns="http://www.w3.org/2000/svg">
<mask id="mask0_157_482" style="mask-type:alpha" maskUnits="userSpaceOnUse" x="0" y="0" width="110" height="110">
<rect width="110" height="110" fill="#D9D9D9"/>
</mask>
<g mask="url(#mask0_157_482)">
<path d="M50.4167 88.2292L47.8959 85.9375C40.4862 79.1389 34.3568 73.3334 29.5076 68.5209C24.6554 63.7084 20.8359 59.4886 18.0492 55.8617C15.2595 52.2317 13.3116 48.9653 12.2055 46.0625C11.0963 43.1597 10.5417 40.257 10.5417 37.3542C10.5417 31.9306 12.3949 27.3656 16.1013 23.6592C19.8047 19.9559 24.3681 18.1042 29.7917 18.1042C33.8404 18.1042 37.6216 19.192 41.1355 21.3675C44.6494 23.5461 47.7431 26.7361 50.4167 30.9375C53.0904 26.7361 56.1841 23.5461 59.698 21.3675C63.2119 19.192 66.9931 18.1042 71.0417 18.1042C76.0834 18.1042 80.3795 19.7267 83.9301 22.9717C87.4837 26.2197 89.5661 30.25 90.1772 35.0625H86.9688C86.4341 31.0903 84.6772 27.8056 81.698 25.2084C78.7188 22.6111 75.1667 21.3125 71.0417 21.3125C67.3751 21.3125 63.9956 22.3621 60.9034 24.4613C57.8081 26.5635 54.8473 29.8681 52.0209 34.375H48.8126C45.9098 29.7917 42.9306 26.4688 39.8751 24.4063C36.8195 22.3438 33.4584 21.3125 29.7917 21.3125C25.2848 21.3125 21.4852 22.8403 18.393 25.8959C15.2977 28.9514 13.7501 32.7709 13.7501 37.3542C13.7501 39.9514 14.2848 42.5868 15.3542 45.2604C16.4237 47.934 18.3334 51.0079 21.0834 54.4821C23.8334 57.9593 27.5765 62.0461 32.3126 66.7425C37.0487 71.442 43.0834 77.1528 50.4167 83.875C52.8612 81.6597 55.1529 79.559 57.2917 77.5729C59.4306 75.5868 61.4167 73.7153 63.2501 71.9584L65.5417 74.25C63.7084 76.007 61.7422 77.8403 59.643 79.75C57.5408 81.6597 55.3056 83.7222 52.9376 85.9375L50.4167 88.2292ZM80.8959 74.9375V61.1875H67.1459V57.9792H80.8959V44.2292H84.1043V57.9792H97.8543V61.1875H84.1043V74.9375H80.8959Z" fill="white"/>
</g>
</svg>
