<svg width="110" height="110" viewBox="0 0 110 110" fill="none" xmlns="http://www.w3.org/2000/svg">
<mask id="mask0_157_494" style="mask-type:alpha" maskUnits="userSpaceOnUse" x="0" y="0" width="110" height="110">
<rect width="110" height="110" fill="#D9D9D9"/>
</mask>
<g mask="url(#mask0_157_494)">
<path d="M51.1042 68.0625H58.8959V56.6042H70.3542V48.8125H58.8959V37.3541H51.1042V48.8125H39.6459V56.6042H51.1042V68.0625ZM55.0001 94.6458C46.2154 91.8958 38.9019 86.4722 33.0597 78.375C27.2144 70.2778 24.2917 61.1111 24.2917 50.875V27.0416L55.0001 15.5833L85.7084 27.0416V50.875C85.7084 61.1111 82.7873 70.2778 76.9451 78.375C71.0998 86.4722 63.7848 91.8958 55.0001 94.6458ZM55.0001 91.2083C62.9445 88.6875 69.514 83.6458 74.7084 76.0833C79.9029 68.5208 82.5001 60.118 82.5001 50.875V29.2187L55.0001 19.0208L27.5001 29.2187V50.875C27.5001 60.118 30.0973 68.5208 35.2917 76.0833C40.4862 83.6458 47.0556 88.6875 55.0001 91.2083Z" fill="white"/>
</g>
</svg>
