<svg width="110" height="50" viewBox="0 0 110 50" fill="none" xmlns="http://www.w3.org/2000/svg">
<path d="M107.601 17.63H96.8353C95.5098 17.63 94.4327 18.7196 94.4327 20.0605C94.4327 21.4013 95.5066 22.4942 96.8353 22.4942H107.601C108.923 22.4942 110 21.4013 110 20.0605C110.003 18.7196 108.923 17.63 107.601 17.63Z" fill="#999999"/>
<path d="M93.2749 23.933C91.9494 23.933 90.8722 25.0226 90.8722 26.3635V32.8589C90.8722 34.1998 91.9494 35.2894 93.2749 35.2894C94.6004 35.2894 95.6776 34.1998 95.6776 32.8589V26.3635C95.6743 25.0226 94.5972 23.933 93.2749 23.933Z" fill="#999999"/>
<path d="M13.1647 26.2657H2.40266C1.07717 26.2657 0 27.3554 0 28.6962C0 30.0371 1.07717 31.13 2.40266 31.13H13.1647C14.4869 31.13 15.5641 30.0371 15.5641 28.6962C15.5641 27.3554 14.4869 26.2657 13.1647 26.2657Z" fill="#999999"/>
<path d="M16.7283 32.5686C15.4029 32.5686 14.3257 33.6582 14.3257 34.9991V41.4945C14.3257 42.8354 15.4029 43.925 16.7283 43.925C18.0538 43.925 19.1278 42.8354 19.1278 41.4945V34.9991C19.131 33.6582 18.0538 32.5686 16.7283 32.5686Z" fill="#999999"/>
<path d="M93.2169 44.2252H63.7528V40.4701C63.7528 39.6774 63.1175 39.0347 62.337 39.0347H39.2263V35.0056C39.2263 33.668 38.1524 32.5817 36.8301 32.5817C35.5078 32.5817 34.4339 33.668 34.4339 35.0056V40.1439C34.4339 42.2057 36.0915 43.8826 38.1298 43.8826H58.9604V45.3344C58.9604 47.3962 60.6181 49.0731 62.6563 49.0731H93.2169C94.5391 49.0731 95.6131 47.9867 95.6131 46.6491C95.6131 45.3083 94.5391 44.2252 93.2169 44.2252Z" fill="#999999"/>
<path d="M16.7283 13.4706C15.4029 13.4706 14.3257 14.5602 14.3257 15.9011V22.3965C14.3257 23.7374 15.4029 24.827 16.7283 24.827C18.0538 24.827 19.1278 23.7374 19.1278 22.3965V15.9011C19.131 14.5602 18.0538 13.4706 16.7283 13.4706Z" fill="#999999"/>
<path d="M57.7026 26.2656H44.7186V22.4682H50.1721C51.4944 22.4682 52.5683 21.3818 52.5683 20.0442C52.5683 18.7066 51.4944 17.6202 50.1721 17.6202H36.8172V11.898C36.8172 10.5604 35.7432 9.47401 34.421 9.47401C33.0987 9.47401 32.0248 10.5604 32.0248 11.898V18.7327C32.0248 20.7945 33.6824 22.4714 35.7207 22.4714H39.91V26.2688H20.2952C18.9698 26.2688 17.8958 27.3585 17.8958 28.7026C17.8958 30.0434 18.9698 31.1363 20.2952 31.1363L58.9217 31.1331C59.586 31.1331 60.1117 30.7057 60.3858 30.4284L64.7719 25.9981L75.5791 36.8912C76.0338 37.3512 76.6433 37.5992 77.2625 37.5992C77.5721 37.5992 77.8817 37.5339 78.1785 37.4132C79.0653 37.038 79.6491 36.1604 79.662 35.185V22.4942H89.7048C91.0303 22.4942 92.1074 21.4046 92.1074 20.0605C92.1074 18.7197 91.0303 17.6267 89.7048 17.6267L79.662 17.63V2.43375C79.662 1.0929 78.588 0 77.2593 0C75.9338 0 74.8566 1.0929 74.8566 2.43375V29.3681L68.2259 22.6704C67.5971 22.0277 67.2004 21.2578 67.2004 20.4096H67.1972V16.1685C67.1972 14.8243 66.1168 13.738 64.7945 13.738C63.469 13.738 62.3918 14.8276 62.3918 16.1685V20.4096C62.3918 21.2578 61.9919 21.9233 61.363 22.566L57.7026 26.2656Z" fill="#999999"/>
<path d="M93.2717 16.1913C94.5972 16.1913 95.6743 15.1016 95.6743 13.7608V7.26862C95.6743 5.92778 94.5972 4.83813 93.2717 4.83813C91.9462 4.83813 90.8722 5.92778 90.8722 7.26862V13.7608C90.8722 15.1016 91.9462 16.1913 93.2717 16.1913Z" fill="#999999"/>
</svg>
