<svg width="110" height="50" viewBox="0 0 110 50" fill="none" xmlns="http://www.w3.org/2000/svg">
<path d="M107.601 17.6301H96.8353C95.5098 17.6301 94.4326 18.7198 94.4326 20.0606C94.4326 21.4015 95.5066 22.4944 96.8353 22.4944H107.601C108.923 22.4944 110 21.4015 110 20.0606C110.003 18.7198 108.923 17.6301 107.601 17.6301Z" fill="#45B035"/>
<path d="M93.2749 23.9329C91.9494 23.9329 90.8722 25.0225 90.8722 26.3633V32.8588C90.8722 34.1996 91.9494 35.2893 93.2749 35.2893C94.6004 35.2893 95.6775 34.1996 95.6775 32.8588V26.3633C95.6743 25.0225 94.5971 23.9329 93.2749 23.9329Z" fill="#009FDE"/>
<path d="M13.1647 26.2656H2.40266C1.07717 26.2656 0 27.3553 0 28.6961C0 30.037 1.07717 31.1299 2.40266 31.1299H13.1647C14.4869 31.1299 15.5641 30.037 15.5641 28.6961C15.5641 27.3553 14.4869 26.2656 13.1647 26.2656Z" fill="#009FDE"/>
<path d="M16.7283 32.5686C15.4029 32.5686 14.3257 33.6582 14.3257 34.9991V41.4945C14.3257 42.8354 15.4029 43.925 16.7283 43.925C18.0538 43.925 19.1278 42.8354 19.1278 41.4945V34.9991C19.131 33.6582 18.0538 32.5686 16.7283 32.5686Z" fill="#F6AB00"/>
<path d="M93.2168 44.2253H63.7528V40.4703C63.7528 39.6775 63.1174 39.0348 62.337 39.0348H39.2263V35.0058C39.2263 33.6682 38.1523 32.5818 36.8301 32.5818C35.5078 32.5818 34.4338 33.6682 34.4338 35.0058V40.144C34.4338 42.2059 36.0915 43.8827 38.1297 43.8827H58.9603V45.3345C58.9603 47.3963 60.618 49.0732 62.6563 49.0732H93.2168C94.5391 49.0732 95.613 47.9868 95.613 46.6493C95.613 45.3084 94.5391 44.2253 93.2168 44.2253Z" fill="#003994"/>
<path d="M16.7283 13.4705C15.4029 13.4705 14.3257 14.5601 14.3257 15.9009V22.3964C14.3257 23.7372 15.4029 24.8269 16.7283 24.8269C18.0538 24.8269 19.1278 23.7372 19.1278 22.3964V15.9009C19.131 14.5601 18.0538 13.4705 16.7283 13.4705Z" fill="#B8589D"/>
<path d="M57.7027 26.2656H44.7186V22.4682H50.1722C51.4944 22.4682 52.5684 21.3818 52.5684 20.0442C52.5684 18.7066 51.4944 17.6202 50.1722 17.6202H36.8172V11.898C36.8172 10.5604 35.7433 9.47401 34.421 9.47401C33.0988 9.47401 32.0248 10.5604 32.0248 11.898V18.7327C32.0248 20.7945 33.6825 22.4714 35.7207 22.4714H39.9101V26.2688H20.2953C18.9698 26.2688 17.8959 27.3585 17.8959 28.7026C17.8959 30.0434 18.9698 31.1363 20.2953 31.1363L58.9217 31.1331C59.5861 31.1331 60.1118 30.7057 60.3859 30.4284L64.772 25.9981L75.5791 36.8912C76.0339 37.3512 76.6434 37.5992 77.2626 37.5992C77.5722 37.5992 77.8818 37.5339 78.1785 37.4132C79.0654 37.038 79.6491 36.1604 79.662 35.185V22.4942H89.7048C91.0303 22.4942 92.1075 21.4046 92.1075 20.0605C92.1075 18.7197 91.0303 17.6267 89.7048 17.6267L79.662 17.63V2.43375C79.662 1.0929 78.5881 0 77.2594 0C75.9339 0 74.8567 1.0929 74.8567 2.43375V29.3681L68.226 22.6704C67.5971 22.0277 67.2004 21.2578 67.2004 20.4096H67.1972V16.1685C67.1972 14.8243 66.1168 13.738 64.7946 13.738C63.4691 13.738 62.3919 14.8276 62.3919 16.1685V20.4096C62.3919 21.2578 61.992 21.9233 61.3631 22.566L57.7027 26.2656Z" fill="#003994"/>
<path d="M93.2716 16.1913C94.5971 16.1913 95.6743 15.1016 95.6743 13.7608V7.26862C95.6743 5.92778 94.5971 4.83813 93.2716 4.83813C91.9461 4.83813 90.8722 5.92778 90.8722 7.26862V13.7608C90.8722 15.1016 91.9461 16.1913 93.2716 16.1913Z" fill="#F08300"/>
</svg>
