<svg width="360" height="29" viewBox="0 0 360 29" fill="none" xmlns="http://www.w3.org/2000/svg">
<path d="M120.638 14.48L121.69 14.2882C123.891 13.8087 125.613 13.0416 126.761 11.9867C128.196 10.6442 128.865 9.10992 128.865 7.19204C128.865 5.56185 128.291 4.21933 127.239 3.06861C126.091 1.91788 124.752 1.15073 122.934 0.57537C121.212 0.0959015 119.298 0.0959015 116.524 0.0959015H114.993H110.784H110.401V6.04132V7.28794V20.6172V22.0556L110.497 27.8092V28.0969H114.802V27.9051V22.3433C114.802 21.8638 114.802 21.2884 114.802 20.7131V14.9594H115.663H117.098L128.961 28.0969L129.057 28.1928H133.075L132.596 27.6174L120.638 14.48ZM117.672 13.3292C117.002 13.3292 116.333 13.3292 115.663 13.3292H114.802V1.7261C115.28 1.7261 115.854 1.6302 116.237 1.6302C119.49 1.6302 121.307 2.10967 122.264 3.06861C123.221 4.12344 123.699 5.65774 123.699 7.47972C123.699 8.53455 123.604 9.49349 123.316 10.1647C123.029 10.836 122.647 11.4114 122.168 11.8908C121.69 12.2744 121.02 12.658 120.255 12.8498C119.394 13.1375 118.724 13.2333 117.672 13.3292ZM52.1392 22.535L51.7566 21.7679L42.4767 0.287689L42.3811 0.0959015H42.1897H41.7114H40.8504H40.659L40.5634 0.287689L28.6048 27.7133L28.4135 28.1928H28.8918H30.1355H30.3269H31.3792L31.5706 28.001L35.6843 18.028H45.8251L49.9389 28.0969L50.0345 28.2887H54.4353L54.244 27.7133L52.1392 22.535ZM36.7366 15.4389L40.8504 5.65774L44.8685 15.4389H36.7366ZM101.982 5.75363C101.982 6.04132 101.982 6.329 101.982 6.71257V15.8225C101.982 17.9321 101.887 19.4664 101.695 20.3295C101.6 21.2884 101.121 22.1515 100.547 23.0145C99.8778 23.8776 98.8254 24.6447 97.486 25.2201C96.1467 25.8913 95.5727 26.179 93.755 26.179C91.5546 26.2749 90.0239 25.6036 88.6846 24.8365C87.5365 24.2611 86.1972 22.9186 86.0058 21.8638C85.6232 20.6172 85.5275 18.6034 85.5275 15.6307V7.19204C85.5275 6.52078 85.5275 5.94542 85.5275 5.37006V0.0959015H81.2224V18.3157C81.2224 20.5213 81.6051 22.3433 82.3704 23.6858C83.2315 25.0283 84.4752 26.0831 86.2929 26.9462C88.1105 27.8092 90.3109 28.1928 92.894 28.1928C95.0943 28.1928 97.0077 27.9051 98.6341 27.2338C100.356 26.5626 101.6 25.6995 102.556 24.6447C103.513 23.494 104.087 22.3433 104.278 21.1925C104.47 20.0418 104.566 18.3157 104.566 16.0143V7.09615C104.566 6.71257 104.566 6.329 104.566 5.94542V0.479477V0.0959015H101.982V5.75363ZM23.6301 0.191795H21.047V20.5213L4.01807 0.383583L3.9224 0.191795H1.62636H1.33936H0V28.1928H1.62636H2.58305V23.0145C2.58305 22.6309 2.58305 22.2474 2.58305 21.8638V5.08238L21.7167 28.001L21.8124 28.0969H22.0037H22.7691H23.1517H23.7257L23.6301 28.001V0.191795ZM52.7133 0.479477V2.39735V2.68503H62.9498V28.1928H67.1592V23.3022V21.672V2.68503H70.4119H70.6989H77.3V0.0959015H52.7133V0.479477ZM185.597 14.48L186.649 14.2882C188.849 13.8087 190.667 13.0416 191.719 11.9867C193.154 10.6442 193.824 9.10992 193.824 7.19204C193.824 5.56185 193.25 4.21933 192.198 3.06861C191.145 1.91788 189.71 1.15073 187.988 0.57537C186.266 0.0959015 184.353 0.0959015 181.483 0.0959015H179.952H175.743H175.456V0.479477V6.13721C175.456 6.52078 175.456 7.00025 175.456 7.38383V20.7131V22.1515L175.551 27.9051V28.1928H179.856V27.9051L179.761 22.3433C179.761 21.8638 179.761 21.3843 179.761 20.7131V14.9594H180.526H180.622H182.057L193.92 28.0969L194.015 28.1928H198.033L197.555 27.6174L185.597 14.48ZM182.631 13.3292C181.866 13.3292 181.292 13.3292 180.622 13.3292H179.761V1.7261C180.239 1.7261 180.813 1.6302 181.196 1.6302C184.544 1.6302 186.362 2.10967 187.223 3.06861C188.18 4.12344 188.658 5.65774 188.658 7.47972C188.658 8.53455 188.467 9.49349 188.275 10.1647C187.988 10.836 187.606 11.4114 187.127 11.8908C186.649 12.2744 185.979 12.658 185.214 12.8498C184.449 13.1375 183.779 13.2333 182.631 13.3292ZM317.523 25.6036H315.323C314.94 25.6036 314.653 25.6036 314.271 25.6036H311.305V23.3022C311.305 22.7268 311.305 22.1515 311.305 21.5761V7.19204C311.305 6.52078 311.305 5.94542 311.305 5.37006V0.0959015H307.095V0.383583V5.75363V7.28794V20.7131C307.095 21.2884 307.095 21.8638 307.095 22.3433V28.1928H307.382H323.646H323.933V27.9051V25.9872V25.6036H323.646H317.523ZM145.799 25.6995L141.972 25.6036V15.4389H151.634H151.921V12.9457H141.972V2.68503H145.799H153.643H153.93V0.0959015H137.571V6.61668V7.67151V20.6172V21.672V28.1928H154.983V25.6995H154.6H145.799ZM294.563 13.4251C296.189 12.658 297.242 11.8908 297.816 11.0278C298.485 9.87707 298.868 8.63045 298.868 7.19204C298.868 5.56185 298.39 4.12344 297.337 2.97272C296.381 2.01378 294.945 1.15073 293.223 0.671264C291.788 0.287689 289.971 0.287689 287.388 0.191795H286.718H282.03H281.265H280.882V28.2887H281.265H285.092H285.379H285.666H288.823C292.267 28.2887 294.85 27.9051 296.476 27.2338C298.007 26.6585 299.155 25.6995 299.92 24.5488C300.686 23.3022 301.164 21.9597 301.164 20.4254C301.164 18.6034 300.59 17.165 299.346 15.9184C298.007 14.48 295.807 13.7128 294.563 13.4251ZM285.379 1.53431C285.761 1.53431 286.144 1.53431 286.909 1.53431C289.301 1.53431 291.023 2.01378 292.075 2.97272C293.128 3.93165 293.606 5.37006 293.606 7.38383C293.606 8.72634 293.319 9.78117 292.649 10.7401C292.075 11.6032 291.31 12.1785 290.353 12.4662C289.397 12.7539 288.153 12.9457 286.622 12.9457H285.283V1.53431H285.379ZM294.563 24.0693C293.893 25.0283 292.936 25.6036 291.98 25.9872C290.832 26.2749 289.492 26.4667 287.675 26.4667H285.474V14.3841H287.866C288.344 14.3841 288.823 14.3841 289.397 14.3841C291.406 14.5759 292.936 15.0553 293.893 15.8225C295.137 16.7814 295.711 18.4116 295.711 20.6172C295.615 21.9597 295.233 23.2063 294.563 24.0693ZM333.213 4.89059V0.0959015H328.908V0.383583V5.27417C328.908 5.94542 328.908 6.61668 328.908 7.28794V20.6172C328.908 21.4802 328.908 22.1515 328.908 22.8227V28.0969H333.213V23.3022C333.213 22.6309 333.117 21.7679 333.117 20.6172V7.28794C333.213 6.42489 333.213 5.65774 333.213 4.89059ZM211.714 25.6995C211.714 25.6995 208.748 25.6995 207.887 25.6995V15.4389H217.55H217.837V12.8498H207.887V2.68503H211.714H219.559H219.846V0.0959015H203.487V28.0969H220.898V25.6036H220.611L211.714 25.6995ZM240.797 0.671264C239.171 0.191795 237.257 0.191795 234.483 0.191795H233.813H227.882H227.595V28.2887H232.091V15.343H235.057C238.501 15.343 240.893 15.0553 242.232 14.48C243.667 13.9046 244.72 12.9457 245.485 11.7949C246.25 10.6442 246.633 9.20581 246.633 7.67151C246.633 5.84953 246.059 4.41112 245.007 3.1645C243.859 1.91788 242.424 1.15073 240.797 0.671264ZM240.415 11.4114C239.745 12.3703 238.98 12.9457 237.927 13.2333C236.971 13.521 235.535 13.7128 233.909 13.7128H232.091V1.6302C232.57 1.6302 233.239 1.53431 234.005 1.53431C236.588 1.53431 238.501 2.01378 239.649 3.06861C240.797 4.02755 241.371 5.65774 241.371 7.7674C241.371 9.20581 241.084 10.4524 240.415 11.4114ZM271.889 5.75363C271.889 6.13721 271.889 6.42489 271.889 6.71257V15.8225C271.889 17.8363 271.794 19.4664 271.602 20.3295C271.411 21.2884 271.028 22.1515 270.359 23.0145C269.785 23.9735 268.828 24.7406 267.393 25.316C265.958 25.8913 265.384 26.179 263.566 26.179C261.366 26.2749 259.835 25.6036 258.496 24.8365C257.348 24.2611 256.008 22.9186 255.817 21.8638C255.53 20.6172 255.434 18.6034 255.434 15.7266V0.0959015H251.129V18.3157C251.129 20.5213 251.512 22.3433 252.277 23.6858C253.043 25.0283 254.382 26.0831 256.2 26.9462C258.018 27.8092 260.218 28.1928 262.705 28.1928C264.81 28.1928 266.819 27.9051 268.445 27.2338C270.072 26.5626 271.411 25.6995 272.368 24.6447C273.324 23.494 273.898 22.3433 274.09 21.1925C274.281 20.0418 274.377 18.3157 274.377 16.0143V7.09615C274.377 6.61668 274.377 6.2331 274.377 5.94542V0.479477V0.0959015H271.889V5.75363Z" fill="white"/>
<path d="M359.904 3.16449C359.043 2.49324 358.087 1.82198 356.843 1.24662C355.025 0.383575 353.208 0 351.007 0C348.424 0 346.893 0.383575 344.789 1.72609C342.397 3.16449 340.771 4.89058 339.623 7.00025C338.379 9.39759 337.805 11.8908 337.805 14.5759C337.805 18.6034 339.144 21.9597 341.823 24.4529C344.31 26.8503 346.702 28.1928 351.007 28.1928C354.547 28.1928 357.513 27.042 359.904 24.9324L360 24.8365V21.9597L359.426 22.7268C358.565 23.8776 357.513 24.7406 356.365 25.316C354.834 25.9872 353.303 26.3708 351.773 26.3708C348.998 26.3708 346.702 25.316 344.884 23.3022C343.067 21.2884 342.11 18.2198 342.11 14.3841C342.11 10.2606 342.971 7.09614 344.693 4.89058C346.319 2.78092 348.711 1.63019 351.486 1.63019C353.877 1.63019 355.982 2.30145 357.8 3.64396C358.374 4.02754 358.948 4.6029 359.426 5.27416L360 6.04131V3.26039L359.904 3.16449Z" fill="white"/>
</svg>
